<svg xmlns="http://www.w3.org/2000/svg" viewBox="0 0 144 144"><g data-name="Layer 2"><g data-name="Layer 1"><path d="M141.62 0H2.38A2.39 2.39 0 000 2.38v139.17a2.39 2.39 0 002.38 2.38h139.24a2.39 2.39 0 002.38-2.38V2.38A2.39 2.39 0 00141.62 0zm-1.27 137.59A2.37 2.37 0 01138 140H6.68a2.38 2.38 0 01-2.38-2.38V6.37A2.38 2.38 0 016.68 4H138a2.37 2.37 0 012.38 2.38z"/><path d="M76.66 8.88A5.92 5.92 0 0180.53 8h53.24a2.68 2.68 0 013 2.6 2.71 2.71 0 01-3 2h-23.5a1.5 1.5 0 00-1.73 1.68v7.39c0 1.17.55 1.76 1.66 1.76h23.51a2.68 2.68 0 013 2.6 2.71 2.71 0 01-3 2H110.6a1.5 1.5 0 00-1.72 1.68v35.21c0 1.17.55 1.76 1.65 1.76h5.74c1.48-.1 2.4-1 2.77-2.81v-22q-.08-4.08 4.56-4.71h9.61q4.5.63 4.57 4.71v26.78c-.1 1.82-.81 2.83-2.15 3-1.43-.09-2.19-1.1-2.28-3V44.74a2.6 2.6 0 00-1.73-2.46 56.49 56.49 0 00-5.67-.14 2.53 2.53 0 00-2.21 2.53v22.71c-.14 2.77-1.66 4.31-4.56 4.64H93.87q-3.95.08-4.56-4.64V44.67q-.42-3-3.6-2.53h-3.8a2.53 2.53 0 00-2.21 2.53v24.4c-.28 2.9-1.48 3.68-3.6 2.32a4.51 4.51 0 01-.69-2.32V42q-.06-4.08 4.56-4.71H89q4.64.63 4.57 4.71v21.94a3 3 0 002.76 2.88h6.09a1.5 1.5 0 001.72-1.69V29.76c0-1.17-.55-1.75-1.66-1.75h-23.4c-2.72-.29-3.58-1.48-2.56-3.59a4.19 4.19 0 012.56-1h23.37a1.51 1.51 0 001.72-1.69v-7.51c0-1.17-.55-1.75-1.66-1.75H79.08a2.65 2.65 0 01-3-2.18q-.18-.57.58-1.41zM33.54 8.19q3.7-4.71 8.27-.07a4.3 4.3 0 003.09 1.71h18.69q3.82-.06 4.44 4.51v50.25q-.34 3.55-2.83 2.46a3.82 3.82 0 01-.94-2.46V16.26c0-1.37-.87-2.28-2.62-2.74H52.3a1.47 1.47 0 00-1.68 1.64q.38 6.49-.62 9.23a10.21 10.21 0 01-6.12 5.34c-1.07.63-1.07 1.18 0 1.64q6.6 2.11 6.73 7.24v26q-.34 3.55-2.83 2.46a3.82 3.82 0 01-.94-2.46V40.05a4.54 4.54 0 00-2.49-3.76l-4.9-2.74a3.88 3.88 0 00-3.63.21c-1.62.73-3.25 1.53-4.91 2.39A4.35 4.35 0 0028.3 40v24.45c-.09 1.78-.79 2.76-2.08 2.94q-2.09-.14-2.22-2.94V39.16q.06-5.34 6.85-7.86c1.08-.5.9-1.14-.53-1.92Q24.2 27.07 24 21.8v-6.57q0-1.71-1.62-1.71h-8.67c-1.34.05-2.24.94-2.69 2.67v48.4q-.19 3.62-2.75 2.41c-.4-.27-.7-1.07-.88-2.39V14.34c0-2.68 1.44-4.19 4.44-4.51h18.49a4.58 4.58 0 003.22-1.64zm7 3.42q-2.41-3.48-5.64-.07a5.69 5.69 0 01-4 2.12H30a1.47 1.47 0 00-1.7 1.64V21a5 5 0 001.61 3.41q2.82 1.65 5.85 3.22a3.72 3.72 0 003.63-.14A49.39 49.39 0 0144 25.08a4.56 4.56 0 002.82-4v-5.71c0-1.14-.72-1.71-2.15-1.71a5.89 5.89 0 01-4.14-2.05zM76.17 96.23q2.56-1.33 3 1.9-.42 3.38 2.83 5.63a36 36 0 005.53 3.09l16.6 8.72c1.56 1.08 3.41 1.12 5.53.14l22.1-11.71c1.2-.85 1.87-1.57 2-2.18a16.88 16.88 0 00.13-3q.49-3.37 3.18-1.89c.79 1.21.93 3.3.42 6.25q-.83 2.89-4.43 4.93-9.67 5.19-19.35 10.61c-1.43 1.31-.93 2.44 1.52 3.38l16.59 9.42c2.49 1.22 3.78 2.55 3.87 4-.64 2.25-2.47 2.36-5.46.35q-8.3-4.78-16.59-9.35a47.24 47.24 0 00-5.53-2.89q-2.49-.56-5.54 1.48-11.06 5.63-22.12 11.46-2.62 1.41-3.87-.56-.9-3 3.25-4.71 9.68-5 19.36-9.78c1.19-.51 1.75-1.1 1.65-1.75a6.2 6.2 0 00-1.65-1.48q-8.31-4.21-16.6-8.72-5.67-2-6.91-6.33-.75-4.97.49-7.01zm.07-20.67a1.37 1.37 0 011.87-.21c1.06 1.41 1.4 4.12 1 8.16a2.74 2.74 0 002.62 2.67h3.46A1.51 1.51 0 0087 84.49v-5.77c0-1.78.67-2.81 2-3.09 1.11.38 1.69 1.41 1.73 3.09v5.7c0 1.17.55 1.76 1.66 1.76h3.32a2.92 2.92 0 002.63-2.53c-.23-3.19 0-5.6.76-7.25.73-.93 1.68-1 2.83-.21a3.82 3.82 0 01.9 2.61V86q0 4.29-4.63 4.71h-5.6a1.51 1.51 0 00-1.73 1.69 12.1 12.1 0 01-.28 3.93c-.37 1.08-.92 1.6-1.66 1.55q-2.49-.7-1.93-5.55c0-1.18-.56-1.76-1.66-1.76H80q-4.65-.57-4.59-4.67v-7.74a4.7 4.7 0 01.83-2.6zm46.46.07q2.91-1.55 3.12 2.53v6.26c0 1.17.55 1.76 1.65 1.76h3.81a2.91 2.91 0 002.62-2.53 16.82 16.82 0 01.76-7.46c1.94-1 3-.18 3.12 2.53V86q-.08 4.14-4.57 4.71h-5.67a1.5 1.5 0 00-1.72 1.69 12.1 12.1 0 01-.28 3.93 1.71 1.71 0 01-1.38 1.55c-.74.14-1.3-.37-1.66-1.55a12.19 12.19 0 01-.28-4c0-1.18-.55-1.76-1.66-1.76-3.69.28-6.45 0-8.3-.85a4.77 4.77 0 01-1.86-3.86v-7.14a7.13 7.13 0 01.76-2.53c1-.79 1.86-.72 2.56.21q1 2.25.62 7.32A2.71 2.71 0 00116.2 86a29.92 29.92 0 004 .14 1.51 1.51 0 001.73-1.69c-.22-4.13.07-7.08.77-8.82zM37.56 70c1.66-.71 2.6.19 2.83 2.67v4.57c0 1.17.56 1.76 1.66 1.76h21.3c1.7.23 2.58-.35 2.62-1.76 0-.75-.71-1.29-2.14-1.62H46.34a4.64 4.64 0 01-2.49-.77q-1.8-3.24 2.49-3.66h18.94a4.2 4.2 0 014.36 3.59 10.64 10.64 0 01-.64 6.91 4.49 4.49 0 01-3.67 1.83h-13.6C50.58 83.52 50 84 50 85a1.45 1.45 0 001.66 1.62h13.62q4.5.63 4.57 4.71v41.49c-.24 2.43-1.2 3.28-2.91 2.53a3.9 3.9 0 01-1-2.53v-39a2.77 2.77 0 00-2.62-2.6H13.84a2.78 2.78 0 00-2.62 2.6v38.89q-.21 3.72-2.84 2.46c-.41-.28-.71-1.11-.9-2.46V91.32q-.06-4.08 4.57-4.71h13.27c1.15 0 1.73-.51 1.73-1.55a1.47 1.47 0 00-1.66-1.68H12.05c-2.72 0-4.25-1.5-4.57-4.64A10.9 10.9 0 018.31 73a4.85 4.85 0 013.74-1.83h18.11q4.15.29 2.56 3.66a3.49 3.49 0 01-2.56.91H13.08c-1.38 0-2 .47-1.86 1.55-.05 1.22.66 1.78 2.14 1.69h21.43a1.51 1.51 0 001.73-1.69c-.32-3.43.02-5.87 1.04-7.29zM17 98.35c.42-3.14 2-4.68 4.64-4.64h34.17c2.81.05 4.36 1.6 4.63 4.64v10.34q-.55 4.71-4.63 4.64H42.12c-1.15 0-1.73.47-1.73 1.41s.56 1.47 1.66 1.47h13.76c2.81.05 4.36 1.6 4.63 4.64v9.71a4.63 4.63 0 01-2.69 4.22 22.54 22.54 0 01-6.92.42c-2.3 0-3.78-1.2-4.42-3.59a42.55 42.55 0 01-.14-4.92c.18-1.92 1-2.7 2.56-2.32q1.65 1.34 1.17 5.27.69 2.46 4.77 1.55 1.8-1.55 1.18-6.47.77-3.37-2.63-4.15h-11.2a1.52 1.52 0 00-1.73 1.69v10.41c-.23 2.43-1.2 3.28-2.9 2.53a3.9 3.9 0 01-1-2.53v-10.34c0-1.17-.55-1.76-1.66-1.76H24q-2.09.08-2.49 2.46v5.35q-.35 3.23 2.69 2.88a2.5 2.5 0 002.49-.63 8 8 0 00.35-3.94c.18-1.92 1-2.7 2.56-2.32 1.19 1.17 1.59 3.28 1.17 6.33a4.56 4.56 0 01-2.28 3.94 17.73 17.73 0 01-6.84.56c-2.59 0-4.13-1.5-4.64-4.64v-9.71c.42-3.14 2-4.68 4.64-4.64h13.14c1.15 0 1.73-.46 1.73-1.4s-.55-1.48-1.66-1.48h-13.2c-2.68 0-4.22-1.5-4.64-4.64zm39 8.09c0-.75-.55-1.13-1.66-1.13h-31c-1.16 0-1.73.33-1.73 1-.33 1.55.46 2.44 2.35 2.67h29c1.88.18 2.9-.67 3.04-2.54zm-32.13-8.79c-1.8.19-2.58 1.06-2.35 2.6 0 .75.55 1.13 1.66 1.13h31c1.15 0 1.73-.33 1.73-1q.61-2.25-2.56-2.74zm22.4-12.51a1.45 1.45 0 00-1.66-1.62h-12c-1.15 0-1.73.49-1.73 1.47a1.45 1.45 0 001.66 1.62h12c1.15 0 1.73-.49 1.73-1.47z"/></g></g></svg>